Coordinates
version=1
nRows=24
nColumns=19
inDegrees=yes

Units are S.I. units (second, meters, Newtons, ...)
If the header above contains a line with 'inDegrees', this indicates whether rotational values are in degrees (yes) or radians (no).

endheader
time	pelvis_tilt	pelvis_list	pelvis_rotation	pelvis_tx	pelvis_ty	pelvis_tz	hip_flexion_r	hip_adduction_r	hip_rotation_r	knee_angle_r	knee_angle_r_beta	ankle_angle_r	hip_flexion_l	hip_adduction_l	hip_rotation_l	knee_angle_l	knee_angle_l_beta	ankle_angle_l
     12.02000000	     -0.30528388	     -7.43668352	     -9.99834309	      2.34252406	      0.94951637	      1.05547096	     23.94660354	     17.16227352	      4.05405994	     14.71692852	      0.25685886	      7.36007717	    -19.78206038	     -8.59962550	    -20.06875888	     84.75656707	      1.47928116	    -14.11229500
     12.02666667	      0.23275167	     -8.08542303	    -10.83386245	      2.34059038	      0.94570900	      1.05709952	     22.59521755	     17.92729322	      3.73391131	     15.79683945	      0.27570686	      6.50335689	    -19.08847121	     -9.44369928	    -20.52650156	     89.26589206	      1.55798373	    -12.55059256
     12.03333333	      0.50318222	     -8.86727949	    -11.55071242	      2.33843784	      0.94134227	      1.05847573	     21.77647990	     18.73433316	      3.01724356	     17.63891176	      0.30785709	      5.95243702	    -17.98194230	    -10.56824326	    -20.77070905	     93.80981483	      1.63729014	    -11.20428574
     12.04000000	      0.12353886	     -9.32144644	    -12.25350661	      2.33588533	      0.93618786	      1.05962236	     22.00904528	     19.23503112	      2.13275895	     20.28388815	      0.35402063	      5.66696754	    -15.82145893	    -11.44676258	    -20.55207984	     98.38242204	      1.71709719	     -9.99477596
     12.04666667	     -0.08964855	     -9.82696381	    -12.99085062	      2.33301735	      0.93106069	      1.06042424	     22.20597130	     19.70578914	      1.33743734	     23.44677755	      0.40922347	      5.75200952	    -13.74623059	    -12.33400137	    -20.28059658	    102.77149341	      1.79370094	     -8.89037446
     12.05333333	     -0.39027136	    -10.24086135	    -13.67323504	      2.32987795	      0.92583223	      1.06079402	     22.60448967	     20.02706227	      0.64410558	     26.93481957	      0.47010129	      6.22988585	    -11.35272251	    -13.16662559	    -19.77456175	    107.00654629	      1.86761655	     -7.95456659
     12.06000000	     -0.70117184	    -10.56823153	    -14.27080579	      2.32655950	      0.92076159	      1.06073633	     23.00508742	     20.20524210	      0.12877113	     30.50344675	      0.53238558	      7.12545244	     -8.71514565	    -13.93959163	    -19.03141358	    111.01440902	      1.93756695	     -7.21052900
     12.06666667	     -1.00658782	    -10.80462266	    -14.77741695	      2.32309243	      0.91602515	      1.06026820	     23.30029456	     20.25639049	     -0.14806422	     33.95387019	      0.59260683	      8.42131386	     -5.83729797	    -14.65156093	    -18.07259734	    114.73865037	      2.00256723	     -6.65592684
     12.07333333	     -0.45062735	    -11.49103183	    -15.25919358	      2.31982012	      0.91280010	      1.05952011	     22.20792762	     20.60411946	      0.03165973	     36.86979887	      0.64349938	     10.09515709	     -4.05408195	    -15.73652959	    -17.33143822	    117.91172725	      2.05794787	     -6.22916820
     12.08000000	      0.35866674	    -11.45199263	    -16.02186661	      2.31846360	      0.91158552	      1.05855896	     20.45037231	     20.18203260	      0.97713334	     39.40088841	      0.68767523	     12.14430792	     -2.52901773	    -15.66772752	    -16.96189415	    119.80330396	      2.09096211	     -6.11082451
     12.08666667	      3.25253580	    -11.36271551	    -17.34953228	      2.31911881	      0.91460171	      1.05775377	     15.64979148	     19.24686654	      3.41431287	     41.14042175	      0.71803582	     14.42371497	     -3.92418436	    -14.69955277	    -18.00604911	    119.92761472	      2.09313174	     -6.24018463
     12.09333333	      6.14353888	    -11.42370921	    -18.01142309	      2.31920935	      0.91817957	      1.05649281	     10.63829798	     18.07193138	      5.39481558	     42.06903480	      0.73424317	     16.71889985	     -4.88216116	    -14.03858523	    -18.33815109	    119.95255134	      2.09356697	     -6.31736634
     12.10000000	      8.48700175	    -11.22834503	    -18.27576661	      2.31853748	      0.92158435	      1.05514050	      6.19644339	     16.60503736	      6.98764617	     42.44539709	      0.74081193	     18.86640193	     -4.75708446	    -13.43655928	    -18.11112050	    119.96223052	      2.09373590	     -6.20416070
     12.10666667	     10.22872122	    -10.74677972	    -18.17981476	      2.31713230	      0.92469817	      1.05385190	      2.39125387	     14.96999464	      8.16862170	     42.30883338	      0.73842845	     20.74411809	     -3.53810883	    -12.88595279	    -17.37177919	    119.96652700	      2.09381089	     -5.88885253
     12.11333333	     11.22981027	     -9.93149756	    -17.79446625	      2.31510873	      0.92725229	      1.05272471	     -0.59446496	     13.25324337	      8.89469047	     41.79151035	      0.72939946	     22.26392673	     -1.13064407	    -12.32128546	    -16.19055645	    119.96806577	      2.09383774	     -5.35393248
     12.12000000	     11.49004203	     -8.95357329	    -17.12138732	      2.31267530	      0.92912498	      1.05181712	     -2.84945277	     11.70726597	      9.23821152	     40.92652587	      0.71430263	     23.33227294	      2.32001432	    -11.86693511	    -14.62140682	    119.96755958	      2.09382891	     -4.59139848
     12.12666667	     11.03066723	     -7.87424905	    -16.10253145	      2.30993209	      0.93018119	      1.05099496	     -4.37576551	     10.37701139	      9.04608613	     39.83093491	      0.69518096	     23.89988934	      6.76986093	    -11.44225483	    -12.63606688	    119.96497729	      2.09378384	     -3.68198894
     12.13333333	      9.47283245	     -6.67056988	    -14.85770147	      2.30716570	      0.92987541	      1.05033401	     -4.71043105	      9.33298310	      8.42485090	     38.73324937	      0.67602273	     23.97554524	     12.57279143	    -10.97026719	    -10.31358350	    119.95992204	      2.09369561	     -2.68815848
     12.14000000	      7.16523739	     -5.76839142	    -13.24617783	      2.30451204	      0.92843344	      1.04957373	     -4.38174694	      8.84705211	      7.34912590	     37.50877711	      0.65465166	     23.43556310	     19.22656217	    -10.63167069	     -7.54960064	    119.94983218	      2.09351951	     -1.66357782
     12.14666667	      4.21320841	     -5.31786474	    -11.31070289	      2.30208906	      0.92572075	      1.04863626	     -3.48460260	      8.95349858	      5.83642601	     36.22187685	      0.63219101	     22.32738930	     26.57890340	    -10.34531879	     -4.33459293	    119.92569565	      2.09309825	     -0.67880618
     12.15333333	      0.97388462	     -5.52453342	     -9.22122537	      2.30005045	      0.92201253	      1.04757761	     -2.40861350	      9.70362851	      4.05580153	     34.84237318	      0.60811413	     20.62478414	     34.14433317	    -10.15860955	     -0.78294486	    119.82854671	      2.09140268	      0.25031078
     12.16000000	     -1.01095536	     -5.43655099	     -7.58772406	      2.29985474	      0.92086276	      1.04721527	     -2.94735711	      9.82004648	      2.78706502	     32.93642582	      0.57484907	     18.27031458	     39.45837027	     -9.38682964	      1.49640228	    118.61211835	      2.07017200	      1.20722458
     12.16666667	     -1.38709479	     -4.14038537	     -6.55186039	      2.30199061	      0.92396514	      1.04780913	     -5.44312983	      8.37797616	      2.05645447	     30.42303060	      0.53098205	     15.17628403	     41.76768892	     -7.66138247	      1.66346514	    115.79601374	      2.02102170	      2.32047040
     12.17333333	     -2.10768808	     -2.69398889	     -5.52775299	      2.30460717	      0.92698264	      1.04835391	     -7.51360533	      6.85232869	      1.04500777	     27.93823204	      0.48761414	     11.54069364	     44.16327547	     -5.81942476	      1.57347138	    112.64616122	      1.96604640	      3.28693002
